<?xml version="1.0" encoding="UTF-8"?>
<svg width="344px" height="128px" viewBox="0 0 344 128" version="1.1" xmlns="http://www.w3.org/2000/svg" xmlns:xlink="http://www.w3.org/1999/xlink">
    <title>v1</title>
    <g id="Branding" stroke="none" stroke-width="1" fill="none" fill-rule="evenodd">
        <g id="Full-1" transform="translate(-68.000000, -76.000000)" fill="#3B3463">
            <g id="v1" transform="translate(68.000000, 76.000000)">
                <path d="M148.08,107.52 L148.08,48 L139.84,48 L139.04,52 C135.76,48.8 131.28,46.8 126.32,46.8 C116.16,46.8 108,55.04 108,65.12 C108,75.28 116.16,83.44 126.32,83.44 C131.28,83.44 135.76,81.52 139.04,78.24 L139.04,107.52 L148.08,107.52 Z M127.6,74.48 C125.2,74.48 122.96,73.52 121.2,71.76 C119.52,70 118.56,67.68 118.56,65.12 C118.56,62.64 119.52,60.32 121.2,58.56 C122.96,56.72 125.2,55.76 127.6,55.76 C130,55.76 132.24,56.72 133.92,58.56 C135.68,60.32 136.56,62.64 136.56,65.12 C136.56,67.68 135.68,70 133.92,71.76 C132.24,73.52 130,74.48 127.6,74.48 Z M173.12,83.44 C183.76,83.44 192.24,75.36 192.24,65.2 C192.24,55.12 183.76,46.96 173.12,46.96 C162.56,46.96 154.08,55.12 154.08,65.2 C154.08,75.36 162.56,83.44 173.12,83.44 Z M173.2,74.64 C170.88,74.64 168.56,73.68 166.96,71.92 C165.12,70.08 164.24,67.76 164.24,65.2 C164.24,62.72 165.12,60.32 166.96,58.56 C168.56,56.72 170.88,55.76 173.2,55.76 C175.68,55.76 177.84,56.72 179.6,58.56 C181.28,60.32 182.16,62.64 182.16,65.12 C182.16,67.68 181.28,70.08 179.6,71.92 C177.84,73.68 175.68,74.64 173.2,74.64 Z M207.92,82.48 L207.92,65.36 C207.92,60.4 211.44,56 216.24,56 C221.04,56 224.56,60.4 224.56,65.36 L224.56,82.48 L234.32,82.48 L234.32,65.36 C234.32,55.2 226.72,47.04 217.44,47.04 C213.92,47.04 210.32,48.64 207.6,51.04 L206,48 L197.84,48 L197.84,82.48 L207.92,82.48 Z M255.6,83.44 C262.64,83.44 268.32,78.16 268.32,72.64 C268.32,66.72 263.76,63.44 258.88,62 C254.88,60.64 251.12,60.16 251.52,57.6 C252,53.92 256.56,53.52 263.28,58.32 L267.92,51.04 C263.28,48.24 260.08,46.96 254.16,46.96 C247.6,46.96 241.92,51.12 241.92,57.44 C241.92,64.08 246.56,66.16 253.28,68.24 L253.730446,68.3815347 C256.123183,69.1402076 258.32,69.9905882 258.32,72.4 C258.32,76.72 250.64,76.48 245.6,70.72 L239.2,77.2 C243.44,81.44 249.36,83.44 255.6,83.44 Z M291.44,83.44 C302.08,83.44 310.56,75.36 310.56,65.2 C310.56,55.12 302.08,46.96 291.44,46.96 C280.88,46.96 272.4,55.12 272.4,65.2 C272.4,75.36 280.88,83.44 291.44,83.44 Z M291.52,74.64 C289.2,74.64 286.88,73.68 285.28,71.92 C283.44,70.08 282.56,67.76 282.56,65.2 C282.56,62.72 283.44,60.32 285.28,58.56 C286.88,56.72 289.2,55.76 291.52,55.76 C294,55.76 296.16,56.72 297.92,58.56 C299.6,60.32 300.48,62.64 300.48,65.12 C300.48,67.68 299.6,70.08 297.92,71.92 C296.16,73.68 294,74.64 291.52,74.64 Z M326.4,82.48 L326.4,22.96 L316.16,22.96 L316.16,82.48 L326.4,82.48 Z M343.04,82.48 L343.04,22.96 L332.8,22.96 L332.8,82.48 L343.04,82.48 Z" id="qonsoll" fill-rule="nonzero"></path>
                <g id="Logo-symbol">
                    <path d="M91.452,15.996 L81.316,79.996 L65.116,79.996 L75.256,15.996 L91.452,15.996 Z M62.084,47.996 L51.948,111.996 L35.748,111.996 L45.888,47.996 L62.084,47.996 Z M37.784,47.996 L32.716,79.996 L16.52,79.996 L21.588,47.996 L37.784,47.996 Z" id="Shape"></path>
                </g>
            </g>
        </g>
    </g>
</svg>